<?xml version="1.0" encoding="UTF-8"?>
<!DOCTYPE svg PUBLIC "-//W3C//DTD SVG 1.1//EN" "http://www.w3.org/Graphics/SVG/1.1/DTD/svg11.dtd">
<!-- Creator: CorelDRAW 2020 (64-Bit) -->
<svg xmlns="http://www.w3.org/2000/svg" xml:space="preserve" width="2.666in" height="2.666in" version="1.1" style="shape-rendering:geometricPrecision; text-rendering:geometricPrecision; image-rendering:optimizeQuality; fill-rule:evenodd; clip-rule:evenodd"
viewBox="0 0 2666 2666"
 xmlns:xlink="http://www.w3.org/1999/xlink"
 xmlns:xodm="http://www.corel.com/coreldraw/odm/2003">
 <defs>
  <style type="text/css">
   <![CDATA[
    .fil6 {fill:#F3F4F5;fill-rule:nonzero}
    .fil2 {fill:#DCE3E7;fill-rule:nonzero}
    .fil1 {fill:#6F85EB;fill-rule:nonzero}
    .fil0 {fill:#899CF8;fill-rule:nonzero}
    .fil5 {fill:#D6645A;fill-rule:nonzero}
    .fil3 {fill:#E9E9E9;fill-rule:nonzero}
    .fil4 {fill:#F75F54;fill-rule:nonzero}
   ]]>
  </style>
   <clipPath id="id0">
    <rect x="5325.7" y="-3134.46" width="10000" height="6666.66"/>
   </clipPath>
 </defs>
 <g id="Layer_x0020_1">
  <metadata id="CorelCorpID_0Corel-Layer"/>
  <path class="fil0" d="M2637.41 607.11l0 1259.46 -1026.46 111.68 -225.23 215.03c-25.92,24.75 -66.79,24.52 -92.44,-0.51l-219.8 -214.52 -1026.36 -111.68 0 -1259.46 160.56 32.63 508.8 103.3 1251.59 0 508.7 -103.3 160.66 -32.63z"/>
  <polygon class="fil1" points="2476.98,639.69 2476.98,1753.19 2637.41,607.11 "/>
  <polygon class="fil1" points="207.47,1754.13 207.47,639.74 47.11,607.11 "/>
  <path class="fil0" d="M1342.27 589.95c115.14,-93 326.09,-155.36 567.41,-155.36 241.22,0 452.17,62.36 567.31,155.36l0 1179.51c-115.14,-93 -326.09,-155.35 -567.31,-155.35 -241.32,0 -452.27,62.36 -567.41,155.35l0 -1179.51z"/>
  <path class="fil0" d="M1342.26 589.97l0 1179.54c-115.13,-93.07 -326.05,-155.35 -567.28,-155.35 -101.05,0 -196.65,10.88 -282.13,30.31 -118.92,27.11 -218.3,70.92 -285.34,125.03l0 -1179.54c0.28,-0.2 0.48,-0.38 0.78,-0.58 27.39,-22.15 60.13,-42.45 97.44,-60.43 18.17,-8.94 37.5,-17.29 57.71,-25.07 112.9,-43.33 255.91,-69.26 411.55,-69.26 241.23,0 452.15,62.37 567.28,155.34z"/>
  <path class="fil2" d="M1343.43 673.61c-0.81,0.54 -1.63,1.18 -2.35,1.81l2.07 -2.08 0.27 0.27z"/>
  <path class="fil3" d="M1515.59 1902.98l-346.65 0 143.23 172.15c14.05,16.88 39.89,17.12 54.26,0.5l149.17 -172.66z"/>
  <path class="fil3" d="M1515.59 1902.98l-346.65 0 0 -1589.12c0,-39.48 32,-71.49 71.49,-71.49l203.69 0c39.48,0 71.48,32.01 71.48,71.49l0 1589.12z"/>
  <path class="fil3" d="M2477.04 1753.19l-896.9 0c22.74,-18.39 50.16,-35.21 81.48,-50.17 19.39,-9.19 40.26,-17.69 62.39,-25.39 85.68,-29.69 190.84,-47.21 304.49,-47.21 190.69,0 357.46,49.23 448.53,122.77z"/>
  <path class="fil3" d="M1117.93 1754.13l-910.46 0c92.37,-74.66 261.63,-124.65 455.24,-124.65 115.31,0 222.07,17.72 309,47.85 22.53,7.82 43.74,16.44 63.42,25.78 31.88,15.27 59.72,32.34 82.81,51.02z"/>
  <path class="fil0" d="M1432.56 1906.25l-181.49 0c-14.1,0 -21.8,16.44 -12.79,27.28l69.43 83.44c16.84,20.24 47.82,20.52 65.03,0.6l72.42 -83.81c9.31,-10.78 1.66,-27.52 -12.59,-27.52z"/>
  <path class="fil1" d="M1432.56 1906.25l-70.83 0c14.24,0 21.9,16.74 12.59,27.52l-69.2 80.09 2.59 3.11c16.84,20.24 47.82,20.52 65.03,0.6l72.42 -83.81c9.31,-10.78 1.66,-27.52 -12.59,-27.52z"/>
  <path class="fil4" d="M1218.21 1853.69l0 -1341.7c0,-12.25 9.96,-22.21 22.21,-22.21l203.69 0c12.23,0 22.2,9.96 22.2,22.21l0 1341.7 -248.09 0z"/>
  <path class="fil5" d="M1444.11 489.78l-76.17 0 0 1363.91 98.37 0 0 -1341.7c0,-12.25 -9.96,-22.21 -22.2,-22.21z"/>
  <path class="fil0" d="M1218.21 450.89l0 -112.86c0,-29.38 23.81,-53.19 53.19,-53.19l141.72 0c29.37,0 53.19,23.81 53.19,53.19l0 112.86 -248.09 0z"/>
  <path class="fil1" d="M1466.3 338.02l0 112.91 -102.47 0 0 -112.91c0,-29.36 -23.74,-53.2 -53.11,-53.2l102.37 0c29.36,0 53.2,23.84 53.2,53.2z"/>
  <path class="fil6" d="M567.3 1087.65c0,24.81 -20.12,44.93 -44.93,44.93 -24.81,0 -44.92,-20.12 -44.92,-44.93 0,-24.81 20.11,-44.93 44.92,-44.93 24.81,0 44.93,20.12 44.93,44.93z"/>
  <path class="fil6" d="M761.96 1087.65c0,24.81 -20.11,44.93 -44.92,44.93 -24.81,0 -44.93,-20.12 -44.93,-44.93 0,-24.81 20.12,-44.93 44.93,-44.93 24.81,0 44.92,20.12 44.92,44.93z"/>
  <path class="fil6" d="M957.81 1087.65c0,24.81 -20.11,44.93 -44.93,44.93 -24.81,0 -44.92,-20.12 -44.92,-44.93 0,-24.81 20.11,-44.93 44.92,-44.93 24.82,0 44.93,20.12 44.93,44.93z"/>
  <path class="fil3" d="M1970.04 816.71c-143.05,4.14 -259.83,130.73 -259.83,273.83l0 249.1c0,16.97 20.52,25.46 32.5,13.46l63.42 -63.42c52.04,43.6 120.86,67.83 195.4,61.45 129.03,-11.04 233.26,-116.07 243.38,-245.18 12.56,-160.31 -116.17,-293.83 -274.87,-289.24z"/>
  <g style="clip-path:url(#id0)">
   <image x="5325.7" y="-3134.46" width="10000" height="6666.66" xlink:href="Untitled-1_Images\Untitled-1_ImgID1.png"/>
  </g>
 </g>
</svg>
